<?xml version="1.0" standalone="no"?>
<!DOCTYPE svg PUBLIC "-//W3C//DTD SVG 20010904//EN"
 "http://www.w3.org/TR/2001/REC-SVG-20010904/DTD/svg10.dtd">
<svg version="1.0" xmlns="http://www.w3.org/2000/svg"
 width="180.000000pt" height="120.000000pt" viewBox="0 0 180.000000 120.000000"
 preserveAspectRatio="xMidYMid meet">

<g transform="translate(0.000000,120.000000) scale(0.100000,-0.100000)"
fill="#000000" stroke="none">
<path d="M0 600 l0 -600 900 0 900 0 0 600 0 600 -900 0 -900 0 0 -600z m1320
416 c0 -59 4 -108 10 -111 6 -3 10 -13 10 -21 0 -10 -12 -14 -39 -14 -44 0
-59 13 -41 36 9 10 11 43 8 109 -5 96 -3 103 35 104 15 1 17 -10 17 -103z m98
70 c-2 -13 -10 -21 -23 -21 -23 0 -33 34 -14 45 20 13 40 -1 37 -24z m-1078
-10 c0 -23 -3 -24 -35 -19 l-35 6 0 -76 c0 -42 5 -79 10 -82 6 -3 10 -13 10
-21 0 -10 -12 -14 -39 -14 -42 0 -61 14 -42 33 6 6 11 44 11 85 l0 74 -35 -6
c-33 -6 -35 -5 -35 19 l0 25 95 0 c94 0 95 0 95 -24z m900 -6 c0 -32 -23 -42
-34 -14 -3 9 -15 14 -28 12 -17 -2 -24 -11 -26 -32 -4 -28 -3 -29 37 -22 l41
6 0 -35 c0 -39 -2 -40 -29 -23 -43 27 -72 -26 -29 -54 31 -21 14 -38 -37 -38
-28 0 -45 5 -48 15 -4 8 -2 17 3 20 15 9 13 162 -2 167 -6 2 -8 10 -4 16 4 8
35 12 82 12 l74 0 0 -30z m-754 -54 c8 -14 14 -35 12 -48 -3 -20 -10 -23 -50
-26 -36 -2 -46 -6 -41 -18 3 -9 19 -14 44 -14 47 0 54 -23 12 -37 -63 -22
-113 18 -113 88 0 69 100 109 136 55z m144 4 c0 -11 -10 -20 -25 -24 -21 -5
-25 -12 -25 -46 0 -30 4 -40 21 -45 36 -12 14 -30 -39 -33 -41 -2 -52 0 -52
12 0 8 5 18 10 21 6 3 10 26 10 50 0 24 -4 47 -10 50 -5 3 -10 13 -10 20 0 11
14 14 60 14 51 -1 60 -4 60 -19z m130 0 c0 -11 -10 -20 -25 -24 -21 -5 -25
-12 -25 -45 0 -30 4 -40 20 -44 11 -3 20 -12 20 -21 0 -12 -11 -16 -49 -16
-51 0 -72 13 -52 33 6 6 11 29 11 52 0 23 -5 46 -11 52 -20 20 1 32 56 32 46
-1 55 -4 55 -19z m159 -6 c55 -70 -15 -172 -98 -143 -32 11 -51 45 -51 90 0
72 105 109 149 53z m151 6 c0 -11 -10 -20 -25 -24 -21 -5 -25 -12 -25 -46 0
-30 4 -40 21 -45 36 -12 14 -30 -39 -33 -41 -2 -52 0 -52 12 0 8 5 18 10 21 6
3 10 26 10 50 0 24 -4 47 -10 50 -5 3 -10 12 -10 20 0 10 15 14 60 13 50 -1
60 -4 60 -18z m350 -44 c0 -36 5 -68 10 -71 6 -3 10 -13 10 -21 0 -10 -12 -14
-39 -14 -42 0 -61 14 -42 33 6 6 11 29 11 52 0 23 -5 46 -11 52 -17 17 -1 33
32 33 l29 0 0 -64z m110 33 c0 -18 4 -28 10 -24 6 3 7 17 4 31 -6 22 -4 24 34
24 54 0 62 -17 23 -47 -17 -13 -31 -29 -31 -35 0 -5 14 -23 31 -39 37 -35 31
-49 -22 -49 -32 0 -40 3 -38 18 3 31 -1 43 -11 37 -6 -3 -7 -17 -4 -31 6 -22
4 -24 -35 -24 -34 0 -41 3 -41 20 0 11 4 20 10 20 5 0 17 12 27 26 17 26 16
27 -10 50 -40 34 -35 54 13 54 38 0 40 -2 40 -31z m-536 -253 c56 -17 123 -61
131 -85 3 -9 9 -50 14 -90 5 -40 16 -80 25 -90 19 -21 20 -32 4 -66 -8 -18
-24 -29 -55 -37 -27 -6 -52 -21 -66 -39 -15 -19 -33 -30 -54 -31 -17 -2 -32
-6 -32 -10 -1 -5 -1 -20 -1 -35 1 -28 1 -27 17 7 16 35 16 35 23 10 l7 -25 11
25 c10 24 11 23 11 -14 l1 -39 26 24 c14 13 34 40 45 59 l18 35 1 -30 c0 -25
-11 -39 -70 -87 -39 -31 -90 -64 -114 -73 -42 -16 -46 -16 -90 4 -25 11 -75
44 -111 73 -57 47 -65 57 -65 88 l0 35 26 -45 c14 -25 35 -56 47 -68 l22 -24
5 44 c7 59 -16 92 -80 113 -59 19 -89 60 -70 95 6 11 14 20 19 20 4 0 13 39
18 87 11 84 13 89 49 121 67 58 188 78 288 48z"/>
<path d="M412 997 c-14 -16 -6 -27 20 -27 13 0 18 6 16 17 -4 22 -22 27 -36
10z"/>
<path d="M830 991 c-14 -28 -12 -57 5 -75 24 -24 45 -9 45 33 0 55 -30 79 -50
42z"/>
<path d="M754 699 c-8 -14 14 -29 43 -29 30 0 38 17 14 29 -25 14 -48 14 -57
0z"/>
<path d="M981 701 c-18 -12 -5 -31 22 -31 29 0 51 15 43 29 -8 13 -45 14 -65
2z"/>
<path d="M721 641 c-22 -14 -4 -33 20 -21 11 6 17 15 14 21 -8 11 -16 11 -34
0z"/>
<path d="M1040 636 c0 -14 34 -28 44 -18 9 8 -14 32 -30 32 -8 0 -14 -6 -14
-14z"/>
<path d="M795 600 c4 -6 11 -8 16 -5 14 9 11 15 -7 15 -8 0 -12 -5 -9 -10z"/>
<path d="M980 600 c0 -5 5 -10 10 -10 6 0 10 5 10 10 0 6 -4 10 -10 10 -5 0
-10 -4 -10 -10z"/>
<path d="M702 577 c-35 -42 -16 -116 35 -135 59 -22 64 -22 105 8 51 37 64 37
116 -1 l41 -30 45 19 c49 22 66 45 66 90 0 27 -26 62 -45 62 -5 0 -44 -16 -87
-37 l-78 -36 -78 36 c-84 40 -104 44 -120 24z"/>
<path d="M650 450 c0 -5 5 -10 10 -10 6 0 10 5 10 10 0 6 -4 10 -10 10 -5 0
-10 -4 -10 -10z"/>
<path d="M856 420 c-20 -22 -36 -44 -36 -48 0 -16 13 -22 25 -12 9 8 14 6 19
-5 7 -21 56 -19 72 3 9 11 13 13 14 4 0 -18 20 -5 20 13 0 16 -57 85 -70 85
-4 0 -24 -18 -44 -40z"/>
<path d="M1125 450 c3 -5 8 -10 11 -10 2 0 4 5 4 10 0 6 -5 10 -11 10 -5 0 -7
-4 -4 -10z"/>
<path d="M705 410 c-3 -5 1 -10 9 -10 8 0 18 5 21 10 3 6 -1 10 -9 10 -8 0
-18 -4 -21 -10z"/>
<path d="M1060 410 c0 -5 7 -10 15 -10 8 0 15 5 15 10 0 6 -7 10 -15 10 -8 0
-15 -4 -15 -10z"/>
<path d="M760 400 c0 -5 7 -10 15 -10 8 0 15 5 15 10 0 6 -7 10 -15 10 -8 0
-15 -4 -15 -10z"/>
<path d="M1005 400 c-3 -5 3 -10 15 -10 12 0 18 5 15 10 -3 6 -10 10 -15 10
-5 0 -12 -4 -15 -10z"/>
<path d="M790 308 c0 -7 5 -20 10 -28 8 -13 10 -12 10 3 0 9 0 20 1 24 0 4 -4
9 -10 11 -6 2 -11 -2 -11 -10z"/>
<path d="M831 303 c1 -10 5 -29 9 -43 l8 -25 3 28 c1 15 2 32 3 39 1 6 -5 13
-11 16 -8 2 -13 -4 -12 -15z"/>
<path d="M874 305 c-4 -9 -2 -21 3 -26 7 -7 12 -3 16 10 6 25 -11 39 -19 16z"/>
<path d="M910 308 c0 -7 4 -19 9 -26 7 -11 10 -10 15 3 3 9 4 21 0 26 -8 13
-24 11 -24 -3z"/>
<path d="M885 210 c3 -5 10 -10 16 -10 5 0 9 5 9 10 0 6 -7 10 -16 10 -8 0
-12 -4 -9 -10z"/>
</g>
</svg>
