<?xml version="1.0" standalone="no"?>
<!DOCTYPE svg PUBLIC "-//W3C//DTD SVG 20010904//EN"
 "http://www.w3.org/TR/2001/REC-SVG-20010904/DTD/svg10.dtd">
<svg version="1.0" xmlns="http://www.w3.org/2000/svg"
 width="234.000000pt" height="119.000000pt" viewBox="0 0 234.000000 119.000000"
 preserveAspectRatio="xMidYMid meet">

<g transform="translate(0.000000,119.000000) scale(0.100000,-0.100000)"
fill="#000000" stroke="none">
<path d="M0 595 l0 -595 1170 0 1170 0 0 595 0 595 -1170 0 -1170 0 0 -595z
m1192 396 c146 -84 228 -138 238 -155 27 -47 4 -67 -249 -212 -245 -140 -257
-144 -293 -102 -16 18 -18 47 -18 290 l0 269 26 25 c18 19 31 24 49 20 13 -3
124 -64 247 -135z m538 -700 c0 -114 3 -140 15 -145 8 -3 15 -15 15 -26 0 -18
-6 -20 -55 -20 -42 0 -57 4 -62 16 -4 10 1 22 10 29 24 17 25 220 2 229 -38
14 -7 56 42 56 l33 0 0 -139z m121 129 c25 -14 24 -46 -1 -60 -43 -23 -84 35
-42 59 21 13 20 13 43 1z m-1421 -40 c0 -31 -30 -56 -38 -32 -2 7 -17 12 -33
12 l-29 0 0 -104 c0 -83 3 -105 15 -110 8 -3 15 -15 15 -26 0 -18 -6 -20 -60
-20 -53 0 -60 2 -60 19 0 11 4 23 10 26 6 3 10 52 10 111 l0 104 -25 0 c-14 0
-25 -4 -25 -10 0 -5 -9 -10 -20 -10 -16 0 -20 7 -20 35 l0 35 130 0 130 0 0
-30z m1200 -10 c0 -34 -3 -40 -20 -40 -11 0 -23 7 -26 15 -4 9 -19 15 -40 15
-33 0 -34 -1 -34 -40 0 -38 2 -40 30 -40 17 0 30 5 30 10 0 6 9 10 20 10 17 0
20 -7 20 -45 0 -38 -3 -45 -20 -45 -11 0 -20 5 -20 10 0 6 -13 10 -30 10 -28
0 -30 -3 -30 -35 0 -24 6 -37 20 -45 11 -6 20 -20 20 -30 0 -18 -7 -20 -65
-20 -63 0 -65 1 -65 25 0 14 5 25 10 25 6 0 10 42 10 105 0 63 -4 105 -10 105
-5 0 -10 11 -10 25 l0 25 105 0 105 0 0 -40z m-1030 -50 c23 -12 44 -72 35
-100 -5 -17 -15 -20 -66 -20 -43 0 -59 -4 -59 -14 0 -25 29 -39 69 -33 29 4
41 1 45 -10 9 -22 0 -31 -42 -42 -53 -15 -108 2 -127 39 -18 36 -19 107 -1
139 25 45 100 66 146 41z m140 0 c0 -7 6 -7 19 0 35 18 51 12 51 -19 0 -25 -4
-30 -27 -33 -26 -3 -28 -6 -31 -59 -3 -50 0 -57 18 -62 12 -3 20 -13 20 -26 0
-19 -6 -21 -65 -21 -52 0 -67 4 -72 16 -4 10 1 22 10 29 22 16 23 111 2 135
-25 28 -8 50 36 50 21 0 39 -5 39 -10z m170 0 c0 -7 6 -7 19 0 11 5 29 10 40
10 17 0 21 -6 21 -30 0 -23 -5 -30 -19 -30 -43 0 -51 -10 -51 -65 0 -48 2 -53
25 -59 16 -4 25 -13 25 -26 0 -18 -7 -20 -70 -20 -63 0 -70 2 -70 19 0 11 5
23 10 26 6 3 10 35 10 71 0 36 -4 64 -10 64 -5 0 -10 11 -10 25 0 23 4 25 40
25 22 0 40 -5 40 -10z m276 -13 c37 -32 45 -117 15 -164 -39 -62 -154 -64
-186 -3 -18 36 -19 107 -1 139 30 54 124 69 172 28z m134 13 c0 -7 6 -7 19 0
11 5 29 10 40 10 17 0 21 -6 21 -30 0 -23 -5 -30 -19 -30 -43 0 -51 -10 -51
-65 0 -48 2 -53 25 -59 16 -4 25 -13 25 -26 0 -18 -7 -20 -70 -20 -63 0 -70 2
-70 19 0 11 5 23 10 26 6 3 10 35 10 71 0 36 -4 64 -10 64 -5 0 -10 11 -10 25
0 23 4 25 40 25 22 0 40 -5 40 -10z m550 -79 c0 -50 5 -93 10 -96 6 -3 10 -15
10 -26 0 -16 -7 -19 -54 -19 -42 0 -55 4 -60 17 -4 11 -1 22 8 29 22 15 22
111 1 134 -26 29 -8 50 41 50 l44 0 0 -89z m138 56 c-1 -18 2 -39 6 -46 14
-21 25 7 19 46 l-6 33 52 0 c70 0 75 -18 22 -70 l-42 -41 21 -29 c12 -17 30
-35 41 -40 10 -6 19 -20 19 -31 0 -18 -6 -20 -57 -17 -57 3 -58 4 -59 33 -1
57 -3 60 -18 39 -9 -12 -11 -23 -5 -28 5 -6 9 -18 9 -28 0 -15 -9 -18 -55 -18
-49 0 -55 2 -55 20 0 11 7 23 15 26 8 3 24 21 35 40 21 33 21 34 3 58 -10 14
-26 28 -35 31 -11 4 -18 16 -18 31 0 23 3 24 55 24 l56 0 -3 -33z"/>
<path d="M1017 923 c-11 -11 -8 -221 3 -228 10 -6 141 61 181 94 12 10 19 23
15 29 -6 10 -177 112 -188 112 -3 0 -8 -3 -11 -7z"/>
<path d="M516 265 c-9 -25 -9 -25 25 -25 24 0 30 4 27 18 -4 23 -44 28 -52 7z"/>
<path d="M1082 268 c-28 -28 -6 -128 27 -128 18 0 41 39 41 69 0 60 -36 91
-68 59z"/>
</g>
</svg>
