<?xml version="1.0" standalone="no"?>
<!DOCTYPE svg PUBLIC "-//W3C//DTD SVG 20010904//EN"
 "http://www.w3.org/TR/2001/REC-SVG-20010904/DTD/svg10.dtd">
<svg version="1.0" xmlns="http://www.w3.org/2000/svg"
 width="171.000000pt" height="142.000000pt" viewBox="0 0 171.000000 142.000000"
 preserveAspectRatio="xMidYMid meet">

<g transform="translate(0.000000,142.000000) scale(0.100000,-0.100000)"
fill="#000000" stroke="none">
<path d="M570 1316 c0 -8 35 -46 77 -85 61 -57 83 -71 107 -71 30 1 28 4 -59
85 -85 80 -125 103 -125 71z"/>
<path d="M971 1245 c-84 -83 -85 -85 -55 -85 25 0 47 15 109 73 75 70 89 97
48 97 -9 0 -55 -38 -102 -85z"/>
<path d="M70 925 l0 -215 35 0 35 0 0 175 0 175 554 0 c434 0 555 -3 558 -12
3 -7 4 -84 4 -170 l-1 -158 183 0 182 0 0 210 0 210 -775 0 -775 0 0 -215z
m1309 11 c-11 -26 -19 -55 -17 -64 2 -9 14 12 27 46 13 35 30 66 38 69 23 9
73 -18 88 -48 29 -55 12 -105 -45 -134 -27 -14 -34 -14 -66 0 -45 19 -63 41
-64 78 0 29 25 87 44 99 18 12 17 3 -5 -46z"/>
<path d="M1426 962 c-3 -5 -15 -34 -26 -66 -21 -56 -21 -58 -3 -71 26 -20 57
-18 78 5 17 19 17 22 -6 80 -23 58 -32 69 -43 52z m18 -121 c11 -4 15 -10 10
-14 -14 -8 -54 3 -54 14 0 11 17 11 44 0z"/>
<path d="M550 948 c-229 -291 -288 -372 -213 -292 148 158 333 363 333 368 0
3 -12 6 -28 6 -22 0 -39 -15 -92 -82z"/>
<path d="M760 892 c-81 -75 -203 -191 -273 -257 l-127 -120 23 -26 23 -26 288
284 287 283 -38 0 c-35 0 -49 -11 -183 -138z"/>
<path d="M998 960 l-60 -65 62 -10 c53 -8 64 -14 72 -35 14 -35 22 -251 14
-342 -7 -75 -8 -77 -39 -87 -93 -29 -375 -61 -545 -61 l-73 0 24 23 c75 69
412 448 409 459 -1 5 12 27 29 49 17 22 30 41 28 42 -2 2 -150 -145 -328 -325
l-324 -328 481 0 482 0 0 373 0 372 -86 0 -87 0 -59 -65z"/>
<path d="M160 650 c0 -355 1 -370 19 -370 10 0 38 24 64 55 l45 55 -13 50
c-24 89 -37 222 -33 340 l3 115 56 22 c30 12 93 29 140 39 71 14 86 20 96 40
l11 24 -194 0 -194 0 0 -370z"/>
<path d="M70 425 l0 -255 150 0 c93 0 190 -6 257 -17 149 -24 517 -24 655 0
69 12 155 17 293 17 l195 0 0 255 0 255 -180 0 -180 0 -2 -212 -3 -213 -557
-2 -558 -2 0 215 0 214 -35 0 -35 0 0 -255z m1490 155 c0 -6 -43 -10 -110 -10
-67 0 -110 4 -110 10 0 6 43 10 110 10 67 0 110 -4 110 -10z m0 -55 c0 -12
-19 -15 -110 -15 -91 0 -110 3 -110 15 0 12 19 15 110 15 91 0 110 -3 110 -15z
m0 -70 c0 -12 -19 -15 -110 -15 -91 0 -110 3 -110 15 0 12 19 15 110 15 91 0
110 -3 110 -15z m0 -55 c0 -6 -43 -10 -110 -10 -67 0 -110 4 -110 10 0 6 43
10 110 10 67 0 110 -4 110 -10z m0 -55 c0 -12 -19 -15 -110 -15 -91 0 -110 3
-110 15 0 12 19 15 110 15 91 0 110 -3 110 -15z m3 -64 c3 -11 2 -22 -1 -25
-3 -3 -54 -6 -114 -6 l-108 0 0 25 0 25 109 0 c99 0 109 -2 114 -19z"/>
<path d="M289 362 c-68 -76 -72 -82 -58 -81 8 0 31 23 52 50 42 55 46 76 6 31z"/>
<path d="M353 94 c-3 -8 -1 -20 4 -25 5 -5 200 -8 494 -7 476 3 484 3 484 23
0 20 -8 20 -488 23 -436 2 -488 1 -494 -14z"/>
</g>
</svg>
